<mxfile host="app.diagrams.net" agent="Mozilla/5.0 (Windows NT 10.0; Win64; x64) AppleWebKit/537.36 (KHTML, like Gecko) Chrome/134.0.0.0 Safari/537.36" version="26.1.3">
  <diagram name="Page-1" id="NHcInyqNBA5J04OXUI_g">
    <mxGraphModel grid="1" page="1" gridSize="10" guides="1" tooltips="1" connect="1" arrows="1" fold="1" pageScale="1" pageWidth="850" pageHeight="1100" math="0" shadow="0">
      <root>
        <mxCell id="0" />
        <mxCell id="1" parent="0" />
        <mxCell id="bNmEvIwelQjhcF_EuMCD-1" value="&lt;font style=&quot;font-size: 16px;&quot;&gt;Oktató&lt;/font&gt;" style="rounded=0;whiteSpace=wrap;html=1;" vertex="1" parent="1">
          <mxGeometry x="10" y="200" width="120" height="60" as="geometry" />
        </mxCell>
        <mxCell id="bNmEvIwelQjhcF_EuMCD-2" value="&lt;span style=&quot;font-size: 16px;&quot;&gt;Tantárgy&lt;/span&gt;" style="rounded=0;whiteSpace=wrap;html=1;" vertex="1" parent="1">
          <mxGeometry x="-470" y="200" width="120" height="60" as="geometry" />
        </mxCell>
        <mxCell id="bNmEvIwelQjhcF_EuMCD-3" value="&lt;span style=&quot;font-size: 16px;&quot;&gt;Tanszék&lt;/span&gt;" style="rounded=0;whiteSpace=wrap;html=1;" vertex="1" parent="1">
          <mxGeometry x="425" y="200" width="120" height="60" as="geometry" />
        </mxCell>
        <mxCell id="bNmEvIwelQjhcF_EuMCD-4" value="Adatbázisrendszerek" style="ellipse;whiteSpace=wrap;html=1;" vertex="1" parent="1">
          <mxGeometry x="-670" y="320" width="120" height="50" as="geometry" />
        </mxCell>
        <mxCell id="bNmEvIwelQjhcF_EuMCD-5" value="3 kredit" style="ellipse;whiteSpace=wrap;html=1;" vertex="1" parent="1">
          <mxGeometry x="-540" y="320" width="120" height="50" as="geometry" />
        </mxCell>
        <mxCell id="bNmEvIwelQjhcF_EuMCD-6" value="ZH" style="ellipse;whiteSpace=wrap;html=1;" vertex="1" parent="1">
          <mxGeometry x="-410" y="320" width="120" height="50" as="geometry" />
        </mxCell>
        <mxCell id="bNmEvIwelQjhcF_EuMCD-7" value="&lt;u&gt;THE_00141_L_3_G&lt;/u&gt;" style="ellipse;whiteSpace=wrap;html=1;" vertex="1" parent="1">
          <mxGeometry x="-280" y="320" width="120" height="50" as="geometry" />
        </mxCell>
        <mxCell id="bNmEvIwelQjhcF_EuMCD-9" value="" style="endArrow=none;html=1;rounded=0;entryX=0.5;entryY=1;entryDx=0;entryDy=0;exitX=0.5;exitY=0;exitDx=0;exitDy=0;" edge="1" parent="1" source="bNmEvIwelQjhcF_EuMCD-7" target="bNmEvIwelQjhcF_EuMCD-2">
          <mxGeometry width="50" height="50" relative="1" as="geometry">
            <mxPoint x="-260" y="270" as="sourcePoint" />
            <mxPoint x="-210" y="220" as="targetPoint" />
          </mxGeometry>
        </mxCell>
        <mxCell id="bNmEvIwelQjhcF_EuMCD-10" value="" style="endArrow=none;html=1;rounded=0;entryX=0.5;entryY=1;entryDx=0;entryDy=0;exitX=0.5;exitY=0;exitDx=0;exitDy=0;" edge="1" parent="1" source="bNmEvIwelQjhcF_EuMCD-6" target="bNmEvIwelQjhcF_EuMCD-2">
          <mxGeometry width="50" height="50" relative="1" as="geometry">
            <mxPoint x="-210" y="330" as="sourcePoint" />
            <mxPoint x="-400" y="270" as="targetPoint" />
          </mxGeometry>
        </mxCell>
        <mxCell id="bNmEvIwelQjhcF_EuMCD-11" value="" style="endArrow=none;html=1;rounded=0;entryX=0.5;entryY=1;entryDx=0;entryDy=0;exitX=0.5;exitY=0;exitDx=0;exitDy=0;" edge="1" parent="1" source="bNmEvIwelQjhcF_EuMCD-5" target="bNmEvIwelQjhcF_EuMCD-2">
          <mxGeometry width="50" height="50" relative="1" as="geometry">
            <mxPoint x="-480" y="320" as="sourcePoint" />
            <mxPoint x="-540" y="260" as="targetPoint" />
          </mxGeometry>
        </mxCell>
        <mxCell id="bNmEvIwelQjhcF_EuMCD-12" value="" style="endArrow=none;html=1;rounded=0;entryX=0.5;entryY=1;entryDx=0;entryDy=0;exitX=0.5;exitY=0;exitDx=0;exitDy=0;" edge="1" parent="1" source="bNmEvIwelQjhcF_EuMCD-4" target="bNmEvIwelQjhcF_EuMCD-2">
          <mxGeometry width="50" height="50" relative="1" as="geometry">
            <mxPoint x="-470" y="330" as="sourcePoint" />
            <mxPoint x="-400" y="270" as="targetPoint" />
          </mxGeometry>
        </mxCell>
        <mxCell id="bNmEvIwelQjhcF_EuMCD-18" value="egyetemi docens" style="ellipse;whiteSpace=wrap;html=1;" vertex="1" parent="1">
          <mxGeometry x="10" y="320" width="120" height="50" as="geometry" />
        </mxCell>
        <mxCell id="bNmEvIwelQjhcF_EuMCD-19" value="&lt;u&gt;neptunkód&lt;/u&gt;" style="ellipse;whiteSpace=wrap;html=1;" vertex="1" parent="1">
          <mxGeometry x="140" y="320" width="120" height="50" as="geometry" />
        </mxCell>
        <mxCell id="bNmEvIwelQjhcF_EuMCD-20" value="" style="endArrow=none;html=1;rounded=0;exitX=0.5;exitY=0;exitDx=0;exitDy=0;entryX=0.5;entryY=1;entryDx=0;entryDy=0;" edge="1" parent="1" source="bNmEvIwelQjhcF_EuMCD-19" target="bNmEvIwelQjhcF_EuMCD-1">
          <mxGeometry width="50" height="50" relative="1" as="geometry">
            <mxPoint x="200" y="30" as="sourcePoint" />
            <mxPoint x="70" y="200" as="targetPoint" />
          </mxGeometry>
        </mxCell>
        <mxCell id="bNmEvIwelQjhcF_EuMCD-21" value="" style="endArrow=none;html=1;rounded=0;exitX=0.5;exitY=0;exitDx=0;exitDy=0;entryX=0.5;entryY=1;entryDx=0;entryDy=0;" edge="1" parent="1" source="bNmEvIwelQjhcF_EuMCD-18" target="bNmEvIwelQjhcF_EuMCD-1">
          <mxGeometry width="50" height="50" relative="1" as="geometry">
            <mxPoint x="70" y="110" as="sourcePoint" />
            <mxPoint x="70" y="270" as="targetPoint" />
          </mxGeometry>
        </mxCell>
        <mxCell id="bNmEvIwelQjhcF_EuMCD-22" value="" style="endArrow=none;html=1;rounded=0;entryX=0.5;entryY=1;entryDx=0;entryDy=0;exitX=0.5;exitY=0;exitDx=0;exitDy=0;" edge="1" parent="1" target="bNmEvIwelQjhcF_EuMCD-1" source="bNmEvIwelQjhcF_EuMCD-23">
          <mxGeometry width="50" height="50" relative="1" as="geometry">
            <mxPoint x="-50" y="110" as="sourcePoint" />
            <mxPoint x="50" y="20" as="targetPoint" />
          </mxGeometry>
        </mxCell>
        <mxCell id="bNmEvIwelQjhcF_EuMCD-23" value="Dr. Bednarik László" style="ellipse;whiteSpace=wrap;html=1;" vertex="1" parent="1">
          <mxGeometry x="-120" y="320" width="120" height="50" as="geometry" />
        </mxCell>
        <mxCell id="bNmEvIwelQjhcF_EuMCD-24" value="Programtervező&lt;div&gt;informatikus&lt;/div&gt;" style="ellipse;whiteSpace=wrap;html=1;" vertex="1" parent="1">
          <mxGeometry x="425" y="320" width="120" height="50" as="geometry" />
        </mxCell>
        <mxCell id="bNmEvIwelQjhcF_EuMCD-25" value="&lt;u&gt;kód&lt;/u&gt;" style="ellipse;whiteSpace=wrap;html=1;" vertex="1" parent="1">
          <mxGeometry x="550" y="320" width="120" height="50" as="geometry" />
        </mxCell>
        <mxCell id="bNmEvIwelQjhcF_EuMCD-26" value="" style="endArrow=none;html=1;rounded=0;entryX=0.5;entryY=1;entryDx=0;entryDy=0;exitX=0.5;exitY=0;exitDx=0;exitDy=0;" edge="1" parent="1" source="bNmEvIwelQjhcF_EuMCD-25" target="bNmEvIwelQjhcF_EuMCD-3">
          <mxGeometry width="50" height="50" relative="1" as="geometry">
            <mxPoint x="690" y="335" as="sourcePoint" />
            <mxPoint x="555" y="200" as="targetPoint" />
          </mxGeometry>
        </mxCell>
        <mxCell id="bNmEvIwelQjhcF_EuMCD-27" value="" style="endArrow=none;html=1;rounded=0;exitX=0.5;exitY=0;exitDx=0;exitDy=0;entryX=0.5;entryY=1;entryDx=0;entryDy=0;" edge="1" parent="1" source="bNmEvIwelQjhcF_EuMCD-24" target="bNmEvIwelQjhcF_EuMCD-3">
          <mxGeometry width="50" height="50" relative="1" as="geometry">
            <mxPoint x="630" y="100" as="sourcePoint" />
            <mxPoint x="555" y="200" as="targetPoint" />
          </mxGeometry>
        </mxCell>
        <mxCell id="bNmEvIwelQjhcF_EuMCD-28" value="" style="endArrow=none;html=1;rounded=0;exitX=0;exitY=0.5;exitDx=0;exitDy=0;entryX=0.5;entryY=1;entryDx=0;entryDy=0;" edge="1" parent="1" source="bNmEvIwelQjhcF_EuMCD-29" target="bNmEvIwelQjhcF_EuMCD-3">
          <mxGeometry width="50" height="50" relative="1" as="geometry">
            <mxPoint x="510" y="100" as="sourcePoint" />
            <mxPoint x="530" y="260" as="targetPoint" />
          </mxGeometry>
        </mxCell>
        <mxCell id="bNmEvIwelQjhcF_EuMCD-29" value="Természet&amp;nbsp;&lt;div&gt;tudományi tanszék&lt;/div&gt;" style="ellipse;whiteSpace=wrap;html=1;" vertex="1" parent="1">
          <mxGeometry x="300" y="320" width="120" height="50" as="geometry" />
        </mxCell>
        <mxCell id="_SuvLTwgKXQPjCOiLvH6-2" value="O-T" style="rhombus;whiteSpace=wrap;html=1;" vertex="1" parent="1">
          <mxGeometry x="-200" y="190" width="80" height="80" as="geometry" />
        </mxCell>
        <mxCell id="_SuvLTwgKXQPjCOiLvH6-3" value="T-O" style="rhombus;whiteSpace=wrap;html=1;" vertex="1" parent="1">
          <mxGeometry x="240" y="190" width="80" height="80" as="geometry" />
        </mxCell>
        <mxCell id="_SuvLTwgKXQPjCOiLvH6-5" value="" style="endArrow=classic;html=1;rounded=0;entryX=0;entryY=0.5;entryDx=0;entryDy=0;exitX=1;exitY=0.5;exitDx=0;exitDy=0;" edge="1" parent="1" source="_SuvLTwgKXQPjCOiLvH6-3" target="bNmEvIwelQjhcF_EuMCD-3">
          <mxGeometry width="50" height="50" relative="1" as="geometry">
            <mxPoint x="320" y="240" as="sourcePoint" />
            <mxPoint x="370" y="190" as="targetPoint" />
          </mxGeometry>
        </mxCell>
        <mxCell id="_SuvLTwgKXQPjCOiLvH6-6" value="" style="endArrow=doubleBlock;html=1;rounded=0;exitX=0;exitY=0.5;exitDx=0;exitDy=0;entryX=1;entryY=0.5;entryDx=0;entryDy=0;endFill=1;" edge="1" parent="1" source="_SuvLTwgKXQPjCOiLvH6-3" target="bNmEvIwelQjhcF_EuMCD-1">
          <mxGeometry width="50" height="50" relative="1" as="geometry">
            <mxPoint x="130" y="236.47" as="sourcePoint" />
            <mxPoint x="170" y="190" as="targetPoint" />
          </mxGeometry>
        </mxCell>
        <mxCell id="_SuvLTwgKXQPjCOiLvH6-7" value="" style="endArrow=doubleBlock;html=1;rounded=0;exitX=0;exitY=0.5;exitDx=0;exitDy=0;entryX=1;entryY=0.5;entryDx=0;entryDy=0;endFill=1;" edge="1" parent="1" source="_SuvLTwgKXQPjCOiLvH6-2" target="bNmEvIwelQjhcF_EuMCD-2">
          <mxGeometry width="50" height="50" relative="1" as="geometry">
            <mxPoint x="-200" y="239.64" as="sourcePoint" />
            <mxPoint x="-310" y="239.64" as="targetPoint" />
          </mxGeometry>
        </mxCell>
        <mxCell id="_SuvLTwgKXQPjCOiLvH6-8" value="" style="endArrow=doubleBlock;html=1;rounded=0;exitX=1;exitY=0.5;exitDx=0;exitDy=0;entryX=0;entryY=0.5;entryDx=0;entryDy=0;endFill=1;" edge="1" parent="1" source="_SuvLTwgKXQPjCOiLvH6-2" target="bNmEvIwelQjhcF_EuMCD-1">
          <mxGeometry width="50" height="50" relative="1" as="geometry">
            <mxPoint x="-190" y="240" as="sourcePoint" />
            <mxPoint x="-340" y="240" as="targetPoint" />
          </mxGeometry>
        </mxCell>
        <mxCell id="_SuvLTwgKXQPjCOiLvH6-42" value="&lt;b&gt;Tanszék&lt;/b&gt;" style="swimlane;fontStyle=0;childLayout=stackLayout;horizontal=1;startSize=30;horizontalStack=0;resizeParent=1;resizeParentMax=0;resizeLast=0;collapsible=1;marginBottom=0;whiteSpace=wrap;html=1;" vertex="1" parent="1">
          <mxGeometry x="-400" y="483" width="140" height="120" as="geometry" />
        </mxCell>
        <mxCell id="_SuvLTwgKXQPjCOiLvH6-46" value="" style="endArrow=none;html=1;rounded=0;exitX=0.29;exitY=1.049;exitDx=0;exitDy=0;exitPerimeter=0;" edge="1" parent="_SuvLTwgKXQPjCOiLvH6-42" source="_SuvLTwgKXQPjCOiLvH6-45">
          <mxGeometry width="50" height="50" relative="1" as="geometry">
            <mxPoint x="-10" y="80" as="sourcePoint" />
            <mxPoint x="40" y="30" as="targetPoint" />
          </mxGeometry>
        </mxCell>
        <mxCell id="_SuvLTwgKXQPjCOiLvH6-47" value="" style="endArrow=none;html=1;rounded=0;exitX=0.29;exitY=1.049;exitDx=0;exitDy=0;exitPerimeter=0;" edge="1" parent="_SuvLTwgKXQPjCOiLvH6-42">
          <mxGeometry width="50" height="50" relative="1" as="geometry">
            <mxPoint x="91" y="120" as="sourcePoint" />
            <mxPoint x="90" y="29" as="targetPoint" />
          </mxGeometry>
        </mxCell>
        <mxCell id="_SuvLTwgKXQPjCOiLvH6-43" value="PK&lt;span style=&quot;white-space: pre;&quot;&gt;&#x9;&lt;/span&gt;&amp;nbsp; &amp;nbsp; &lt;u&gt;kód&lt;/u&gt;&lt;span style=&quot;text-decoration-line: underline; white-space: pre;&quot;&gt;&#x9;&lt;/span&gt;&amp;nbsp; &amp;nbsp; C (10)" style="text;strokeColor=none;fillColor=none;align=left;verticalAlign=middle;spacingLeft=4;spacingRight=4;overflow=hidden;points=[[0,0.5],[1,0.5]];portConstraint=eastwest;rotatable=0;whiteSpace=wrap;html=1;" vertex="1" parent="_SuvLTwgKXQPjCOiLvH6-42">
          <mxGeometry y="30" width="140" height="30" as="geometry" />
        </mxCell>
        <mxCell id="_SuvLTwgKXQPjCOiLvH6-44" value="&lt;blockquote style=&quot;margin: 0 0 0 40px; border: none; padding: 0px;&quot;&gt;név&lt;span style=&quot;white-space: pre;&quot;&gt;&#x9;&lt;/span&gt;&lt;span style=&quot;white-space: pre;&quot;&gt;&#x9;&lt;/span&gt;C (30)&lt;/blockquote&gt;" style="text;strokeColor=none;fillColor=none;align=left;verticalAlign=middle;spacingLeft=4;spacingRight=4;overflow=hidden;points=[[0,0.5],[1,0.5]];portConstraint=eastwest;rotatable=0;whiteSpace=wrap;html=1;" vertex="1" parent="_SuvLTwgKXQPjCOiLvH6-42">
          <mxGeometry y="60" width="140" height="30" as="geometry" />
        </mxCell>
        <mxCell id="_SuvLTwgKXQPjCOiLvH6-45" value="&lt;blockquote style=&quot;margin: 0 0 0 40px; border: none; padding: 0px;&quot;&gt;kar&lt;span style=&quot;white-space: pre;&quot;&gt;&#x9;&lt;/span&gt;&lt;span style=&quot;white-space: pre;&quot;&gt;&#x9;&lt;/span&gt;C (30)&lt;/blockquote&gt;" style="text;strokeColor=none;fillColor=none;align=left;verticalAlign=middle;spacingLeft=4;spacingRight=4;overflow=hidden;points=[[0,0.5],[1,0.5]];portConstraint=eastwest;rotatable=0;whiteSpace=wrap;html=1;" vertex="1" parent="_SuvLTwgKXQPjCOiLvH6-42">
          <mxGeometry y="90" width="140" height="30" as="geometry" />
        </mxCell>
        <mxCell id="_SuvLTwgKXQPjCOiLvH6-70" value="&lt;b&gt;Oktató&lt;/b&gt;" style="swimlane;fontStyle=0;childLayout=stackLayout;horizontal=1;startSize=30;horizontalStack=0;resizeParent=1;resizeParentMax=0;resizeLast=0;collapsible=1;marginBottom=0;whiteSpace=wrap;html=1;" vertex="1" parent="1">
          <mxGeometry x="-200" y="483" width="180" height="150" as="geometry" />
        </mxCell>
        <mxCell id="_SuvLTwgKXQPjCOiLvH6-74" value="" style="endArrow=none;html=1;rounded=0;exitX=0.29;exitY=1.081;exitDx=0;exitDy=0;exitPerimeter=0;" edge="1" parent="_SuvLTwgKXQPjCOiLvH6-70" source="_SuvLTwgKXQPjCOiLvH6-73">
          <mxGeometry width="50" height="50" relative="1" as="geometry">
            <mxPoint x="51.940000000000055" y="117.38999999999999" as="sourcePoint" />
            <mxPoint x="52" y="30" as="targetPoint" />
          </mxGeometry>
        </mxCell>
        <mxCell id="_SuvLTwgKXQPjCOiLvH6-71" value="PK &lt;span style=&quot;white-space: pre;&quot;&gt;&#x9;&lt;/span&gt;&lt;span style=&quot;white-space: pre;&quot;&gt;&#x9;&lt;/span&gt;&lt;u&gt;neptunkód&lt;/u&gt;&lt;span style=&quot;text-decoration-line: underline; white-space: pre;&quot;&gt;&#x9;&lt;/span&gt;C (6)" style="text;strokeColor=none;fillColor=none;align=left;verticalAlign=middle;spacingLeft=4;spacingRight=4;overflow=hidden;points=[[0,0.5],[1,0.5]];portConstraint=eastwest;rotatable=0;whiteSpace=wrap;html=1;" vertex="1" parent="_SuvLTwgKXQPjCOiLvH6-70">
          <mxGeometry y="30" width="180" height="30" as="geometry" />
        </mxCell>
        <mxCell id="_SuvLTwgKXQPjCOiLvH6-75" value="" style="endArrow=none;html=1;rounded=0;exitX=0.29;exitY=1.081;exitDx=0;exitDy=0;exitPerimeter=0;" edge="1" parent="_SuvLTwgKXQPjCOiLvH6-70">
          <mxGeometry width="50" height="50" relative="1" as="geometry">
            <mxPoint x="130" y="121" as="sourcePoint" />
            <mxPoint x="130" y="29" as="targetPoint" />
          </mxGeometry>
        </mxCell>
        <mxCell id="_SuvLTwgKXQPjCOiLvH6-86" value="FK&lt;span style=&quot;white-space: pre;&quot;&gt;&#x9;&lt;/span&gt;&lt;span style=&quot;white-space: pre;&quot;&gt;&#x9;&lt;/span&gt;tanszék kód&lt;span style=&quot;white-space: pre;&quot;&gt;&#x9;&lt;/span&gt;C (6)" style="text;strokeColor=none;fillColor=none;align=left;verticalAlign=middle;spacingLeft=4;spacingRight=4;overflow=hidden;points=[[0,0.5],[1,0.5]];portConstraint=eastwest;rotatable=0;whiteSpace=wrap;html=1;" vertex="1" parent="_SuvLTwgKXQPjCOiLvH6-70">
          <mxGeometry y="60" width="180" height="30" as="geometry" />
        </mxCell>
        <mxCell id="_SuvLTwgKXQPjCOiLvH6-72" value="&lt;span style=&quot;white-space: pre;&quot;&gt;&#x9;&lt;/span&gt;&amp;nbsp; &amp;nbsp; &amp;nbsp; &amp;nbsp; név&amp;nbsp; &amp;nbsp; &amp;nbsp; &amp;nbsp; &amp;nbsp; &amp;nbsp; &amp;nbsp; &amp;nbsp; &amp;nbsp; C(20)" style="text;strokeColor=none;fillColor=none;align=left;verticalAlign=middle;spacingLeft=4;spacingRight=4;overflow=hidden;points=[[0,0.5],[1,0.5]];portConstraint=eastwest;rotatable=0;whiteSpace=wrap;html=1;" vertex="1" parent="_SuvLTwgKXQPjCOiLvH6-70">
          <mxGeometry y="90" width="180" height="30" as="geometry" />
        </mxCell>
        <mxCell id="_SuvLTwgKXQPjCOiLvH6-87" value="" style="endArrow=none;html=1;rounded=0;entryX=0.719;entryY=0.874;entryDx=0;entryDy=0;entryPerimeter=0;" edge="1" parent="_SuvLTwgKXQPjCOiLvH6-70" target="_SuvLTwgKXQPjCOiLvH6-86">
          <mxGeometry width="50" height="50" relative="1" as="geometry">
            <mxPoint x="130" y="150" as="sourcePoint" />
            <mxPoint x="180" y="100" as="targetPoint" />
          </mxGeometry>
        </mxCell>
        <mxCell id="_SuvLTwgKXQPjCOiLvH6-73" value="&lt;span style=&quot;white-space: pre;&quot;&gt;&#x9;&lt;/span&gt;&amp;nbsp; &amp;nbsp; &amp;nbsp; &amp;nbsp; beosztás&lt;span style=&quot;white-space: pre;&quot;&gt;&#x9;&lt;/span&gt;&lt;span style=&quot;white-space: pre;&quot;&gt;&#x9;&lt;/span&gt;C(20)" style="text;strokeColor=none;fillColor=none;align=left;verticalAlign=middle;spacingLeft=4;spacingRight=4;overflow=hidden;points=[[0,0.5],[1,0.5]];portConstraint=eastwest;rotatable=0;whiteSpace=wrap;html=1;" vertex="1" parent="_SuvLTwgKXQPjCOiLvH6-70">
          <mxGeometry y="120" width="180" height="30" as="geometry" />
        </mxCell>
        <mxCell id="_SuvLTwgKXQPjCOiLvH6-77" value="&lt;b&gt;Tantárgy&lt;/b&gt;" style="swimlane;fontStyle=0;childLayout=stackLayout;horizontal=1;startSize=30;horizontalStack=0;resizeParent=1;resizeParentMax=0;resizeLast=0;collapsible=1;marginBottom=0;whiteSpace=wrap;html=1;" vertex="1" parent="1">
          <mxGeometry x="280" y="483" width="170" height="150" as="geometry" />
        </mxCell>
        <mxCell id="_SuvLTwgKXQPjCOiLvH6-83" value="" style="endArrow=none;html=1;rounded=0;exitX=0.298;exitY=0.893;exitDx=0;exitDy=0;exitPerimeter=0;" edge="1" parent="_SuvLTwgKXQPjCOiLvH6-77" source="_SuvLTwgKXQPjCOiLvH6-80">
          <mxGeometry width="50" height="50" relative="1" as="geometry">
            <mxPoint y="80" as="sourcePoint" />
            <mxPoint x="50" y="30" as="targetPoint" />
          </mxGeometry>
        </mxCell>
        <mxCell id="_SuvLTwgKXQPjCOiLvH6-78" value="PK&lt;span style=&quot;white-space: pre;&quot;&gt;&#x9;&lt;/span&gt;&lt;span style=&quot;white-space: pre;&quot;&gt;&#x9;&lt;/span&gt;&lt;u&gt;neptunkód&amp;nbsp;&lt;/u&gt; &amp;nbsp; &amp;nbsp;C(6)" style="text;strokeColor=none;fillColor=none;align=left;verticalAlign=middle;spacingLeft=4;spacingRight=4;overflow=hidden;points=[[0,0.5],[1,0.5]];portConstraint=eastwest;rotatable=0;whiteSpace=wrap;html=1;" vertex="1" parent="_SuvLTwgKXQPjCOiLvH6-77">
          <mxGeometry y="30" width="170" height="30" as="geometry" />
        </mxCell>
        <mxCell id="_SuvLTwgKXQPjCOiLvH6-84" value="" style="endArrow=none;html=1;rounded=0;exitX=0.298;exitY=0.893;exitDx=0;exitDy=0;exitPerimeter=0;" edge="1" parent="_SuvLTwgKXQPjCOiLvH6-77">
          <mxGeometry width="50" height="50" relative="1" as="geometry">
            <mxPoint x="121" y="147" as="sourcePoint" />
            <mxPoint x="120" y="30" as="targetPoint" />
          </mxGeometry>
        </mxCell>
        <mxCell id="_SuvLTwgKXQPjCOiLvH6-79" value="&lt;blockquote style=&quot;margin: 0 0 0 40px; border: none; padding: 0px;&quot;&gt;&amp;nbsp; &amp;nbsp; név&lt;span style=&quot;white-space: pre;&quot;&gt;&#x9;&lt;/span&gt;&lt;span style=&quot;white-space: pre;&quot;&gt;&#x9;&lt;/span&gt;&amp;nbsp; C(30)&lt;/blockquote&gt;" style="text;strokeColor=none;fillColor=none;align=left;verticalAlign=middle;spacingLeft=4;spacingRight=4;overflow=hidden;points=[[0,0.5],[1,0.5]];portConstraint=eastwest;rotatable=0;whiteSpace=wrap;html=1;" vertex="1" parent="_SuvLTwgKXQPjCOiLvH6-77">
          <mxGeometry y="60" width="170" height="30" as="geometry" />
        </mxCell>
        <mxCell id="_SuvLTwgKXQPjCOiLvH6-82" value="&lt;blockquote style=&quot;margin: 0 0 0 40px; border: none; padding: 0px;&quot;&gt;&amp;nbsp; &amp;nbsp; kredit&lt;span style=&quot;white-space: pre;&quot;&gt;&#x9;&lt;/span&gt;&lt;span style=&quot;white-space: pre;&quot;&gt;&#x9;&lt;/span&gt;&amp;nbsp; N&lt;/blockquote&gt;" style="text;strokeColor=none;fillColor=none;align=left;verticalAlign=middle;spacingLeft=4;spacingRight=4;overflow=hidden;points=[[0,0.5],[1,0.5]];portConstraint=eastwest;rotatable=0;whiteSpace=wrap;html=1;" vertex="1" parent="_SuvLTwgKXQPjCOiLvH6-77">
          <mxGeometry y="90" width="170" height="30" as="geometry" />
        </mxCell>
        <mxCell id="_SuvLTwgKXQPjCOiLvH6-80" value="&lt;blockquote style=&quot;margin: 0 0 0 40px; border: none; padding: 0px;&quot;&gt;&lt;font style=&quot;font-size: 11px;&quot;&gt;&amp;nbsp; lezárás módja&amp;nbsp; &amp;nbsp; C(10)&lt;/font&gt;&lt;/blockquote&gt;" style="text;strokeColor=none;fillColor=none;align=left;verticalAlign=middle;spacingLeft=4;spacingRight=4;overflow=hidden;points=[[0,0.5],[1,0.5]];portConstraint=eastwest;rotatable=0;whiteSpace=wrap;html=1;" vertex="1" parent="_SuvLTwgKXQPjCOiLvH6-77">
          <mxGeometry y="120" width="170" height="30" as="geometry" />
        </mxCell>
        <mxCell id="_SuvLTwgKXQPjCOiLvH6-88" style="edgeStyle=orthogonalEdgeStyle;rounded=0;orthogonalLoop=1;jettySize=auto;html=1;exitX=1;exitY=0.5;exitDx=0;exitDy=0;entryX=0;entryY=0.5;entryDx=0;entryDy=0;startArrow=block;startFill=1;endArrow=doubleBlock;endFill=1;" edge="1" parent="1" source="_SuvLTwgKXQPjCOiLvH6-43" target="_SuvLTwgKXQPjCOiLvH6-86">
          <mxGeometry relative="1" as="geometry" />
        </mxCell>
        <mxCell id="_SuvLTwgKXQPjCOiLvH6-89" value="&lt;b&gt;Oktató-Tamtárgy&lt;/b&gt;" style="swimlane;fontStyle=0;childLayout=stackLayout;horizontal=1;startSize=30;horizontalStack=0;resizeParent=1;resizeParentMax=0;resizeLast=0;collapsible=1;marginBottom=0;whiteSpace=wrap;html=1;" vertex="1" parent="1">
          <mxGeometry x="30" y="533" width="180" height="90" as="geometry" />
        </mxCell>
        <mxCell id="_SuvLTwgKXQPjCOiLvH6-90" value="FK&lt;span style=&quot;white-space: pre;&quot;&gt;&#x9;&lt;/span&gt;&lt;span style=&quot;white-space: pre;&quot;&gt;&#x9;&lt;/span&gt;&lt;u&gt;Oktató&lt;/u&gt;&lt;span style=&quot;text-decoration-line: underline; white-space: pre;&quot;&gt;&#x9;&lt;/span&gt;&lt;span style=&quot;text-decoration-line: underline; white-space: pre;&quot;&gt;&#x9;&lt;/span&gt;C (6)&lt;div&gt;&lt;u&gt;&lt;span style=&quot;white-space: pre;&quot;&gt;&#x9;&lt;/span&gt;&lt;span style=&quot;white-space: pre;&quot;&gt;&#x9;&lt;/span&gt;neptunkód&lt;span style=&quot;white-space: pre;&quot;&gt;&#x9;&lt;/span&gt;&lt;br&gt;&lt;/u&gt;&lt;/div&gt;" style="text;strokeColor=none;fillColor=none;align=left;verticalAlign=middle;spacingLeft=4;spacingRight=4;overflow=hidden;points=[[0,0.5],[1,0.5]];portConstraint=eastwest;rotatable=0;whiteSpace=wrap;html=1;" vertex="1" parent="_SuvLTwgKXQPjCOiLvH6-89">
          <mxGeometry y="30" width="180" height="30" as="geometry" />
        </mxCell>
        <mxCell id="_SuvLTwgKXQPjCOiLvH6-93" value="" style="endArrow=none;html=1;rounded=0;entryX=0.279;entryY=0.067;entryDx=0;entryDy=0;entryPerimeter=0;" edge="1" parent="_SuvLTwgKXQPjCOiLvH6-89" target="_SuvLTwgKXQPjCOiLvH6-90">
          <mxGeometry width="50" height="50" relative="1" as="geometry">
            <mxPoint x="50" y="90" as="sourcePoint" />
            <mxPoint x="100" y="40" as="targetPoint" />
          </mxGeometry>
        </mxCell>
        <mxCell id="_SuvLTwgKXQPjCOiLvH6-94" value="" style="endArrow=none;html=1;rounded=0;entryX=0.279;entryY=0.067;entryDx=0;entryDy=0;entryPerimeter=0;" edge="1" parent="_SuvLTwgKXQPjCOiLvH6-89">
          <mxGeometry width="50" height="50" relative="1" as="geometry">
            <mxPoint x="130" y="88" as="sourcePoint" />
            <mxPoint x="130" y="30" as="targetPoint" />
          </mxGeometry>
        </mxCell>
        <mxCell id="_SuvLTwgKXQPjCOiLvH6-91" value="FK&lt;span style=&quot;white-space: pre;&quot;&gt;&#x9;&lt;/span&gt;&lt;span style=&quot;white-space: pre;&quot;&gt;&#x9;&lt;/span&gt;&lt;u&gt;Tantárgy&lt;span style=&quot;white-space: pre;&quot;&gt;&#x9;&lt;/span&gt;&lt;span style=&quot;white-space: pre;&quot;&gt;&#x9;&lt;/span&gt;&lt;/u&gt;C (6)&lt;div&gt;&lt;u&gt;&lt;span style=&quot;white-space: pre;&quot;&gt;&#x9;&lt;/span&gt;&lt;span style=&quot;white-space: pre;&quot;&gt;&#x9;&lt;/span&gt;neptunkód&lt;span style=&quot;white-space: pre;&quot;&gt;&#x9;&lt;/span&gt;&lt;/u&gt;&lt;/div&gt;" style="text;strokeColor=none;fillColor=none;align=left;verticalAlign=middle;spacingLeft=4;spacingRight=4;overflow=hidden;points=[[0,0.5],[1,0.5]];portConstraint=eastwest;rotatable=0;whiteSpace=wrap;html=1;" vertex="1" parent="_SuvLTwgKXQPjCOiLvH6-89">
          <mxGeometry y="60" width="180" height="30" as="geometry" />
        </mxCell>
        <mxCell id="_SuvLTwgKXQPjCOiLvH6-95" style="edgeStyle=orthogonalEdgeStyle;rounded=0;orthogonalLoop=1;jettySize=auto;html=1;entryX=0;entryY=0.5;entryDx=0;entryDy=0;startArrow=block;startFill=1;endArrow=doubleBlock;endFill=1;" edge="1" parent="1" source="_SuvLTwgKXQPjCOiLvH6-71" target="_SuvLTwgKXQPjCOiLvH6-90">
          <mxGeometry relative="1" as="geometry" />
        </mxCell>
        <mxCell id="_SuvLTwgKXQPjCOiLvH6-96" style="edgeStyle=orthogonalEdgeStyle;rounded=0;orthogonalLoop=1;jettySize=auto;html=1;entryX=0;entryY=0.5;entryDx=0;entryDy=0;startArrow=doubleBlock;startFill=1;" edge="1" parent="1" source="_SuvLTwgKXQPjCOiLvH6-91" target="_SuvLTwgKXQPjCOiLvH6-78">
          <mxGeometry relative="1" as="geometry" />
        </mxCell>
      </root>
    </mxGraphModel>
  </diagram>
</mxfile>
